<?xml version="1.0" standalone="no"?>
<!DOCTYPE svg PUBLIC "-//W3C//DTD SVG 20010904//EN"
 "http://www.w3.org/TR/2001/REC-SVG-20010904/DTD/svg10.dtd">
<svg version="1.0" xmlns="http://www.w3.org/2000/svg"
 width="700.000000pt" height="700.000000pt" viewBox="0 0 700.000000 700.000000"
 preserveAspectRatio="xMidYMid meet">
<metadata>
Created by potrace 1.14, written by Peter Selinger 2001-2017
</metadata>
<g transform="translate(0.000000,700.000000) scale(0.100000,-0.100000)"
fill="#000000" stroke="none">
<path d="M1140 6989 c-538 -70 -974 -467 -1108 -1008 l-26 -106 -3 -1047 -4
-1048 26 0 c53 0 182 33 242 61 119 57 211 150 257 262 21 51 21 63 26 882 6
824 6 831 28 910 52 182 171 371 304 483 72 61 215 135 303 157 52 13 339 15
2315 15 1976 0 2263 -2 2315 -15 82 -21 228 -95 297 -150 129 -103 262 -314
310 -490 22 -78 22 -96 28 -890 5 -625 9 -819 19 -850 43 -134 141 -248 263
-308 66 -32 194 -67 248 -67 l21 0 -4 1048 c-3 1023 -4 1049 -24 1132 -67 270
-179 476 -358 655 -175 175 -381 290 -635 353 l-105 27 -2335 1 c-1284 1
-2364 -2 -2400 -7z"/>
<path d="M2740 4820 c-213 -45 -353 -135 -503 -323 l-72 -90 -3 181 -2 182
-270 0 -270 0 0 -1295 0 -1295 285 0 284 0 3 853 3 852 24 70 c74 222 218 371
406 420 76 19 214 19 290 0 127 -34 185 -80 237 -190 58 -124 58 -132 58
-1111 l0 -894 290 0 289 0 4 868 c3 842 4 869 24 938 60 207 151 318 308 376
52 19 81 22 215 22 139 1 161 -2 211 -22 154 -62 229 -176 249 -381 5 -53 10
-480 10 -948 l0 -853 285 0 286 0 -3 1013 -3 1012 -27 96 c-76 276 -232 430
-517 507 -89 24 -111 26 -311 26 -210 0 -217 0 -300 -28 -100 -33 -164 -64
-244 -118 -62 -43 -193 -168 -243 -232 l-30 -40 -38 72 c-88 168 -266 288
-497 336 -106 22 -317 20 -428 -4z"/>
<path d="M0 2207 c0 -607 4 -1003 10 -1055 64 -507 411 -928 896 -1086 41 -14
112 -33 157 -43 78 -17 204 -18 2437 -18 2257 0 2359 1 2439 19 271 59 492
177 676 361 179 179 291 385 358 655 20 83 21 109 24 1113 l4 1027 -21 0 c-53
0 -183 -35 -257 -70 -110 -51 -182 -120 -231 -219 l-37 -75 -5 -835 c-7 -954
-1 -896 -99 -1096 -90 -183 -230 -328 -397 -409 -145 -71 40 -66 -2454 -66
-1467 0 -2271 4 -2300 10 -176 40 -368 175 -479 338 -58 86 -116 211 -143 307
-22 79 -22 92 -28 890 -5 805 -5 810 -27 868 -49 129 -146 235 -268 294 -66
31 -182 62 -232 63 l-23 0 0 -973z"/>
</g>
</svg>
