<svg xmlns="http://www.w3.org/2000/svg" width="1920" height="960" viewBox="0 0 1920 960"><g transform="translate(459.759 -165)"><circle cx="9" cy="9" r="9" transform="translate(891.241 225)" fill="#00b763"/><ellipse cx="9" cy="9.5" rx="9" ry="9.5" transform="translate(891.241 292)" fill="#00b763"/><ellipse cx="9" cy="9.5" rx="9" ry="9.5" transform="translate(891.241 359)" fill="#00b763"/><ellipse cx="9" cy="9.5" rx="9" ry="9.5" transform="translate(891.241 426)" fill="#00b763"/><ellipse cx="9" cy="9.5" rx="9" ry="9.5" transform="translate(891.241 493)" fill="#00b763"/><circle cx="9" cy="9" r="9" transform="translate(958.241 225)" fill="#00b763"/><ellipse cx="9" cy="9.5" rx="9" ry="9.5" transform="translate(958.241 292)" fill="#00b763"/><ellipse cx="9" cy="9.5" rx="9" ry="9.5" transform="translate(958.241 359)" fill="#00b763"/><ellipse cx="9" cy="9.5" rx="9" ry="9.5" transform="translate(958.241 426)" fill="#00b763"/><ellipse cx="9" cy="9.5" rx="9" ry="9.5" transform="translate(958.241 493)" fill="#00b763"/><circle cx="9" cy="9" r="9" transform="translate(1025.241 225)" fill="#00b763"/><ellipse cx="9" cy="9.5" rx="9" ry="9.5" transform="translate(1025.241 292)" fill="#00b763"/><ellipse cx="9" cy="9.5" rx="9" ry="9.5" transform="translate(1025.241 359)" fill="#00b763"/><ellipse cx="9" cy="9.5" rx="9" ry="9.5" transform="translate(1025.241 426)" fill="#00b763"/><ellipse cx="9" cy="9.5" rx="9" ry="9.5" transform="translate(1025.241 493)" fill="#00b763"/><ellipse cx="9.5" cy="9" rx="9.5" ry="9" transform="translate(1092.241 225)" fill="#00b763"/><circle cx="9.5" cy="9.5" r="9.5" transform="translate(1092.241 292)" fill="#00b763"/><circle cx="9.5" cy="9.5" r="9.5" transform="translate(1092.241 359)" fill="#00b763"/><circle cx="9.5" cy="9.5" r="9.5" transform="translate(1092.241 426)" fill="#00b763"/><circle cx="9.5" cy="9.5" r="9.5" transform="translate(1092.241 493)" fill="#00b763"/><ellipse cx="9.5" cy="9" rx="9.5" ry="9" transform="translate(1159.241 225)" fill="#00b763"/><circle cx="9.5" cy="9.5" r="9.5" transform="translate(1159.241 292)" fill="#00b763"/><circle cx="9.5" cy="9.5" r="9.5" transform="translate(1159.241 359)" fill="#00b763"/><circle cx="9.5" cy="9.5" r="9.5" transform="translate(1159.241 426)" fill="#00b763"/><circle cx="9.5" cy="9.5" r="9.5" transform="translate(1159.241 493)" fill="#00b763"/><ellipse cx="9.5" cy="9" rx="9.5" ry="9" transform="translate(1226.241 225)" fill="#00b763"/><circle cx="9.5" cy="9.5" r="9.5" transform="translate(1226.241 292)" fill="#00b763"/><circle cx="9.5" cy="9.5" r="9.5" transform="translate(1226.241 359)" fill="#00b763"/><circle cx="9.5" cy="9.5" r="9.5" transform="translate(1226.241 426)" fill="#00b763"/><circle cx="9.5" cy="9.5" r="9.5" transform="translate(1226.241 493)" fill="#00b763"/><ellipse cx="9.5" cy="9" rx="9.5" ry="9" transform="translate(1293.241 225)" fill="#00b763"/><circle cx="9" cy="9" r="9" transform="translate(1361.241 225)" fill="#00b763"/><circle cx="9.5" cy="9.5" r="9.5" transform="translate(1293.241 292)" fill="#00b763"/><ellipse cx="9" cy="9.5" rx="9" ry="9.5" transform="translate(1361.241 292)" fill="#00b763"/><circle cx="9.5" cy="9.5" r="9.5" transform="translate(1293.241 359)" fill="#00b763"/><ellipse cx="9" cy="9.5" rx="9" ry="9.5" transform="translate(1361.241 359)" fill="#00b763"/><circle cx="9.5" cy="9.5" r="9.5" transform="translate(1293.241 426)" fill="#00b763"/><ellipse cx="9" cy="9.5" rx="9" ry="9.5" transform="translate(1361.241 426)" fill="#00b763"/><circle cx="9.5" cy="9.5" r="9.5" transform="translate(1293.241 493)" fill="#00b763"/><ellipse cx="9" cy="9.5" rx="9" ry="9.5" transform="translate(1361.241 493)" fill="#00b763"/></g><g transform="translate(-82.5 1792.741) rotate(-90)" opacity="0.2"><circle cx="9" cy="9" r="9" transform="translate(891.241 225)" fill="#00b763"/><ellipse cx="9" cy="9.5" rx="9" ry="9.5" transform="translate(891.241 292)" fill="#00b763"/><ellipse cx="9" cy="9.5" rx="9" ry="9.5" transform="translate(891.241 359)" fill="#00b763"/><ellipse cx="9" cy="9.5" rx="9" ry="9.5" transform="translate(891.241 426)" fill="#00b763"/><ellipse cx="9" cy="9.5" rx="9" ry="9.5" transform="translate(891.241 493)" fill="#00b763"/><circle cx="9" cy="9" r="9" transform="translate(958.241 225)" fill="#00b763"/><ellipse cx="9" cy="9.5" rx="9" ry="9.5" transform="translate(958.241 292)" fill="#00b763"/><ellipse cx="9" cy="9.5" rx="9" ry="9.5" transform="translate(958.241 359)" fill="#00b763"/><ellipse cx="9" cy="9.5" rx="9" ry="9.5" transform="translate(958.241 426)" fill="#00b763"/><ellipse cx="9" cy="9.5" rx="9" ry="9.5" transform="translate(958.241 493)" fill="#00b763"/><circle cx="9" cy="9" r="9" transform="translate(1025.241 225)" fill="#00b763"/><ellipse cx="9" cy="9.5" rx="9" ry="9.5" transform="translate(1025.241 292)" fill="#00b763"/><ellipse cx="9" cy="9.5" rx="9" ry="9.5" transform="translate(1025.241 359)" fill="#00b763"/><ellipse cx="9" cy="9.5" rx="9" ry="9.5" transform="translate(1025.241 426)" fill="#00b763"/><ellipse cx="9" cy="9.5" rx="9" ry="9.5" transform="translate(1025.241 493)" fill="#00b763"/><ellipse cx="9.5" cy="9" rx="9.5" ry="9" transform="translate(1092.241 225)" fill="#00b763"/><circle cx="9.5" cy="9.5" r="9.5" transform="translate(1092.241 292)" fill="#00b763"/><circle cx="9.5" cy="9.5" r="9.5" transform="translate(1092.241 359)" fill="#00b763"/><circle cx="9.5" cy="9.5" r="9.5" transform="translate(1092.241 426)" fill="#00b763"/><circle cx="9.5" cy="9.5" r="9.5" transform="translate(1092.241 493)" fill="#00b763"/><ellipse cx="9.5" cy="9" rx="9.5" ry="9" transform="translate(1159.241 225)" fill="#00b763"/><circle cx="9.5" cy="9.5" r="9.5" transform="translate(1159.241 292)" fill="#00b763"/><circle cx="9.5" cy="9.5" r="9.5" transform="translate(1159.241 359)" fill="#00b763"/><circle cx="9.5" cy="9.5" r="9.5" transform="translate(1159.241 426)" fill="#00b763"/><circle cx="9.5" cy="9.5" r="9.5" transform="translate(1159.241 493)" fill="#00b763"/><ellipse cx="9.5" cy="9" rx="9.5" ry="9" transform="translate(1226.241 225)" fill="#00b763"/><circle cx="9.5" cy="9.5" r="9.5" transform="translate(1226.241 292)" fill="#00b763"/><circle cx="9.5" cy="9.5" r="9.5" transform="translate(1226.241 359)" fill="#00b763"/><circle cx="9.5" cy="9.5" r="9.5" transform="translate(1226.241 426)" fill="#00b763"/><circle cx="9.5" cy="9.5" r="9.5" transform="translate(1226.241 493)" fill="#00b763"/><ellipse cx="9.5" cy="9" rx="9.5" ry="9" transform="translate(1293.241 225)" fill="#00b763"/><circle cx="9" cy="9" r="9" transform="translate(1361.241 225)" fill="#00b763"/><circle cx="9.5" cy="9.5" r="9.5" transform="translate(1293.241 292)" fill="#00b763"/><ellipse cx="9" cy="9.5" rx="9" ry="9.5" transform="translate(1361.241 292)" fill="#00b763"/><circle cx="9.5" cy="9.5" r="9.5" transform="translate(1293.241 359)" fill="#00b763"/><ellipse cx="9" cy="9.5" rx="9" ry="9.5" transform="translate(1361.241 359)" fill="#00b763"/><circle cx="9.5" cy="9.5" r="9.5" transform="translate(1293.241 426)" fill="#00b763"/><ellipse cx="9" cy="9.5" rx="9" ry="9.5" transform="translate(1361.241 426)" fill="#00b763"/><circle cx="9.5" cy="9.5" r="9.5" transform="translate(1293.241 493)" fill="#00b763"/><ellipse cx="9" cy="9.5" rx="9" ry="9.5" transform="translate(1361.241 493)" fill="#00b763"/></g><rect width="1920" height="960" fill="none"/></svg>