<?xml version="1.0" encoding="iso-8859-1"?>
<!-- Generator: Adobe Illustrator 19.0.0, SVG Export Plug-In . SVG Version: 6.00 Build 0)  -->
<svg version="1.1" id="Layer_1" xmlns="http://www.w3.org/2000/svg" xmlns:xlink="http://www.w3.org/1999/xlink" x="0px" y="0px"
	 viewBox="0 0 490 490" style="enable-background:new 0 0 490 490;" xml:space="preserve">
<g>
	<g>
		<path d="M416.1,34.9h-33.3V21.3c0-11.4-9.4-20.8-20.8-20.8s-20.8,9.4-20.8,20.8v13.5H147.7V21.3c0-11.4-9.4-20.8-20.8-20.8
			s-20.8,9.4-20.8,20.8v13.5H73.9C33.3,34.9,0,68.1,0,108.7v306.9c0,40.6,33.3,73.9,73.9,73.9h341.2c40.6,0,73.9-33.3,74.9-72.8
			v-308C490,68.1,456.7,34.9,416.1,34.9z M448.4,415.6c0,17.7-14.6,32.3-32.3,32.3H73.9c-17.7,0-32.3-14.6-32.3-32.3V107.7
			c0-17.7,14.6-32.3,32.3-32.3h32.3v13.5c0,11.4,9.4,20.8,20.8,20.8s20.8-8.3,20.8-19.8V76.5h193.5V89c0,11.4,9.4,20.8,20.8,20.8
			c10.4,0,19.8-8.3,20.8-19.8V76.5h33.3c17.7,0,32.3,14.6,32.3,32.3v306.8L448.4,415.6L448.4,415.6z"/>
		<path d="M129,184.7h-25c-11.4,0-20.8,9.4-20.8,20.8c0,11.4,9.4,20.8,20.8,20.8h25c10.4,0,19.8-9.4,20.8-20.8
			C149.8,194,140.4,184.7,129,184.7z"/>
		<path d="M386,184.7h-25c-11.4,0-20.8,9.4-20.8,20.8c0,11.4,9.4,20.8,20.8,20.8h25c10.4,0,19.8-9.4,20.8-20.8
			C406.8,194,397.4,184.7,386,184.7z"/>
		<path d="M257,184.7h-25c-11.4,0-20.8,9.4-20.8,20.8c0,11.4,9.4,20.8,20.8,20.8h25c11.4,0,20.8-9.4,20.8-20.8
			C277.8,194,268.4,184.7,257,184.7z"/>
		<path d="M129,271h-25c-11.4,0-20.8,9.4-20.8,20.8c0,11.4,9.4,20.8,20.8,20.8h25c10.4,0,19.8-8.3,20.8-20.8
			C149.8,280.4,140.4,271,129,271z"/>
		<path d="M386,271h-25c-11.4,0-20.8,9.4-20.8,20.8c0,11.4,9.4,20.8,20.8,20.8h25c10.4,0,19.8-8.3,20.8-20.8
			C406.8,280.4,397.4,271,386,271z"/>
		<path d="M257,271h-25c-11.4,0-20.8,9.4-20.8,20.8c0,11.4,9.4,20.8,20.8,20.8h25c11.4,0,20.8-8.3,20.8-20.8
			C277.8,280.4,268.4,271,257,271z"/>
		<path d="M129,358.4h-25c-11.4,0-20.8,9.4-20.8,20.8c0,11.4,9.4,20.8,20.8,20.8h25c10.4,0,19.8-9.4,20.8-20.8
			C149.8,367.8,140.4,358.4,129,358.4z"/>
		<path d="M386,358.4h-25c-11.4,0-20.8,9.4-20.8,20.8c0,11.4,9.4,20.8,20.8,20.8h25c10.4,0,19.8-9.4,20.8-20.8
			C406.8,367.8,397.4,358.4,386,358.4z"/>
		<path d="M257,358.4h-25c-11.4,0-20.8,9.4-20.8,20.8c0,11.4,9.4,20.8,20.8,20.8h25c11.4,0,20.8-9.4,20.8-20.8
			C277.8,367.8,268.4,358.4,257,358.4z"/>
	</g>
</g>
<g>
</g>
<g>
</g>
<g>
</g>
<g>
</g>
<g>
</g>
<g>
</g>
<g>
</g>
<g>
</g>
<g>
</g>
<g>
</g>
<g>
</g>
<g>
</g>
<g>
</g>
<g>
</g>
<g>
</g>
</svg>
