<?xml version="1.0" encoding="utf-8"?>
<!-- Generator: Adobe Illustrator 26.2.1, SVG Export Plug-In . SVG Version: 6.00 Build 0)  -->
<svg version="1.1" id="Layer_1" xmlns="http://www.w3.org/2000/svg" xmlns:xlink="http://www.w3.org/1999/xlink" x="0px" y="0px"
	 viewBox="0 0 512 512" style="enable-background:new 0 0 512 512;" xml:space="preserve">
<style type="text/css">
	.st0{fill:#B3B3B3;}
</style>
<g>
	<g>
		<path class="st0" d="M256,51.8C143.4,51.8,51.8,143.4,51.8,256S143.4,460.2,256,460.2S460.2,368.6,460.2,256S368.6,51.8,256,51.8
			C256,51.8,256,51.8,256,51.8z M256,501C120.9,501,11,391.1,11,256S120.9,11,256,11s245,109.9,245,245S391.1,501,256,501z"/>
		<path class="st0" d="M344.1,276.4H256c-11.3,0-20.4-9.1-20.4-20.4V98.2c0-11.3,9.1-20.4,20.4-20.4s20.4,9.1,20.4,20.4v137.4h67.7
			c11.3,0,20.4,9.1,20.4,20.4C364.5,267.3,355.4,276.4,344.1,276.4L344.1,276.4z"/>
	</g>
</g>
</svg>
