<?xml version="1.0" encoding="utf-8"?>
<!-- Generator: Adobe Illustrator 26.2.1, SVG Export Plug-In . SVG Version: 6.00 Build 0)  -->
<svg version="1.1" id="Layer_1" xmlns="http://www.w3.org/2000/svg" xmlns:xlink="http://www.w3.org/1999/xlink" x="0px" y="0px"
	 viewBox="0 0 24 24" style="enable-background:new 0 0 24 24;" xml:space="preserve">
<style type="text/css">
	.st0{fill:#FFFFFF;}
</style>
<path class="st0" d="M15.9,9h-4.6V0h4.6c2.5,0,4.5,2,4.5,4.5S18.3,9,15.9,9z M12.7,7.5h3.1c1.7,0,3-1.4,3-3s-1.4-3-3-3h-3.1
	C12.7,1.5,12.7,7.5,12.7,7.5z M12.7,9H8.1C5.7,9,3.7,7,3.7,4.5S5.7,0,8.1,0h4.6L12.7,9L12.7,9z M8.1,1.5c-1.7,0-3,1.4-3,3s1.4,3,3,3
	h3.1v-6C11.3,1.5,8.1,1.5,8.1,1.5z M12.7,16.5H8.1c-2.5,0-4.5-2-4.5-4.5s2-4.5,4.5-4.5h4.6L12.7,16.5L12.7,16.5z M8.1,9
	c-1.7,0-3,1.4-3,3s1.4,3,3,3h3.1V9H8.1z M8.2,24c-2.5,0-4.5-2-4.5-4.5s2-4.5,4.5-4.5h4.6v4.4C12.7,22,10.7,24,8.2,24z M8.1,16.5
	c-1.7,0-3,1.4-3,3c0,1.7,1.4,3,3,3c1.7,0,3.1-1.4,3.1-3.1v-3H8.1z M15.9,16.5L15.9,16.5c-2.6,0-4.6-2-4.6-4.5s2-4.5,4.5-4.5h0.1
	c2.5,0,4.5,2,4.5,4.5S18.3,16.5,15.9,16.5z M15.8,9c-1.7,0-3,1.4-3,3s1.4,3,3,3h0.1c1.7,0,3-1.4,3-3S17.5,9,15.8,9
	C15.9,9,15.8,9,15.8,9z"/>
</svg>
