<?xml version="1.0" encoding="utf-8"?>
<!-- Generator: Adobe Illustrator 26.4.1, SVG Export Plug-In . SVG Version: 6.00 Build 0)  -->
<svg version="1.1" id="Layer_1" xmlns="http://www.w3.org/2000/svg" xmlns:xlink="http://www.w3.org/1999/xlink" x="0px" y="0px"
	 viewBox="0 0 24 24" style="enable-background:new 0 0 24 24;" xml:space="preserve">
<style type="text/css">
	.st0{fill:#B3B3B3;}
</style>
<path class="st0" d="M20,1.2H4C2.5,1.2,1.2,2.5,1.2,4v16c0,1.5,1.2,2.8,2.8,2.8h16c1.5,0,2.8-1.2,2.8-2.8V4
	C22.8,2.5,21.5,1.2,20,1.2z M4,2.8h16c0.7,0,1.2,0.6,1.2,1.2v5.2H2.8V4C2.8,3.3,3.3,2.8,4,2.8z M20,21.2H4c-0.7,0-1.2-0.6-1.2-1.2
	v-9.2h18.5V20C21.2,20.7,20.7,21.2,20,21.2z"/>
</svg>
