<?xml version="1.0" encoding="utf-8"?>
<!-- Generator: Adobe Illustrator 26.4.1, SVG Export Plug-In . SVG Version: 6.00 Build 0)  -->
<svg version="1.1" id="Layer_1" xmlns="http://www.w3.org/2000/svg" xmlns:xlink="http://www.w3.org/1999/xlink" x="0px" y="0px"
	 viewBox="0 0 24 24" style="enable-background:new 0 0 24 24;" xml:space="preserve">
<style type="text/css">
	.st0{fill:#B3B3B3;}
</style>
<path class="st0" d="M19,0.1H5.1c-2.7,0-5,2.2-5,5v13.8c0,2.7,2.2,5,5,5H19c2.7,0,5-2.2,5-5V5C23.9,2.3,21.7,0.1,19,0.1z M5.1,1.9
	H19c1.7,0,3.1,1.4,3.1,3.1v4.1H1.9V5C1.9,3.3,3.4,1.9,5.1,1.9z M19,22H5.1c-1.7,0-3.1-1.4-3.1-3.1v-7.9h20.2v7.9
	C22.1,20.5,20.7,22,19,22z"/>
</svg>
