<svg xmlns="http://www.w3.org/2000/svg" width="128" height="128" viewBox="0 0 128 128"><g transform="translate(0)"><rect width="128" height="128" rx="24" fill="#00b763"/><g transform="translate(-21.602 -18.965)"><path d="M-.208,12.691a13.947,13.947,0,0,0,2.782-.366,9.917,9.917,0,0,0,3.318-1.4A9.9,9.9,0,0,0,8.675,8.181,7.565,7.565,0,0,0,9.852,3.793V-21.314a17.231,17.231,0,0,1,1.5-7.435,17.766,17.766,0,0,1,3.639-5.241,14.446,14.446,0,0,1,4.495-3.047,10.94,10.94,0,0,1,4.067-.975H97.078c-7.242,10.969-7.242,101.406,0,112.375H23.55a10.94,10.94,0,0,1-4.067-.975,14.447,14.447,0,0,1-4.495-3.047A17.766,17.766,0,0,1,11.35,65.1a17.231,17.231,0,0,1-1.5-7.435V33.533a9.291,9.291,0,0,0-1.177-4.875A9.646,9.646,0,0,0,5.892,25.61a10.267,10.267,0,0,0-3.318-1.524A12.069,12.069,0,0,0-.208,23.66Zm128,10.969a12.321,12.321,0,0,0-2.889.427,11.925,11.925,0,0,0-3.318,1.4,8.622,8.622,0,0,0-2.729,2.681,7.836,7.836,0,0,0-1.124,4.388V57.665a17.231,17.231,0,0,1-1.5,7.435,17.765,17.765,0,0,1-3.639,5.241,14.447,14.447,0,0,1-4.495,3.047,10.94,10.94,0,0,1-4.067.975H30.506c7.242-10.969,7.242-101.406,0-112.375h73.528a10.94,10.94,0,0,1,4.067.975A14.447,14.447,0,0,1,112.6-33.99a17.766,17.766,0,0,1,3.639,5.241,17.231,17.231,0,0,1,1.5,7.435V2.818a9.644,9.644,0,0,0,1.124,4.875,9.119,9.119,0,0,0,2.729,3.047,10.267,10.267,0,0,0,3.318,1.524,12.321,12.321,0,0,0,2.889.427Z" transform="translate(21.81 65.16)" fill="#fff"/><path d="M3.12-26.325h9.925v6.617h.276a26.9,26.9,0,0,1,2.573-3.216,14.039,14.039,0,0,1,3.079-2.481,15.569,15.569,0,0,1,3.906-1.608,19.392,19.392,0,0,1,5.054-.6,17.211,17.211,0,0,1,8.041,1.93,10.914,10.914,0,0,1,5.284,5.973,21.148,21.148,0,0,1,6.157-5.79,16.6,16.6,0,0,1,8.73-2.114q7.536,0,11.717,3.676t4.181,12.314V21.186H61.567V-6.567q0-2.849-.184-5.192A10.6,10.6,0,0,0,60.326-15.8a6.01,6.01,0,0,0-2.619-2.619,10.354,10.354,0,0,0-4.779-.919q-5.33,0-7.719,3.308T42.82-6.659V21.186H32.343V-9.324q0-4.962-1.792-7.49t-6.571-2.527a9.618,9.618,0,0,0-3.906.827,9.734,9.734,0,0,0-3.308,2.389,11.959,11.959,0,0,0-2.3,3.86A14.673,14.673,0,0,0,13.6-7.027V21.186H3.12Z" transform="translate(48.02 85.99)" fill="#00b763"/></g></g></svg>