<svg width="24" height="24" viewBox="0 0 24 24" fill="none" xmlns="http://www.w3.org/2000/svg">
<path d="M21.5999 0H2.39999C1.07451 0 0 1.07451 0 2.39999V21.5999C0 22.9254 1.07451 23.9999 2.39999 23.9999H21.5999C22.9254 23.9999 23.9999 22.9254 23.9999 21.5999V2.39999C23.9999 1.07451 22.9254 0 21.5999 0Z" fill="#6C757D"/>
<path d="M0 11.041C0.175763 11.0357 0.350547 11.0127 0.521698 10.9724C0.743332 10.9235 0.95414 10.8344 1.1437 10.7096C1.35005 10.5745 1.52743 10.3997 1.66549 10.1954C1.82161 9.95023 1.89866 9.66304 1.88619 9.37267V4.66539C1.87513 4.18563 1.97109 3.70944 2.16709 3.2714C2.33333 2.90535 2.56445 2.57242 2.84929 2.2887C3.09158 2.04671 3.37757 1.85285 3.69208 1.71741C3.93213 1.60801 4.19103 1.54594 4.45458 1.53461H18.2407C16.8829 3.5914 16.8829 20.5481 18.2407 22.6045H4.45458C4.19103 22.5932 3.93213 22.5311 3.69208 22.4217C3.37757 22.2863 3.09158 22.0924 2.84929 21.8504C2.56445 21.5667 2.33332 21.2338 2.16709 20.8677C1.97109 20.4297 1.87513 19.9535 1.88619 19.4737V14.9488C1.89781 14.6296 1.82146 14.3134 1.66549 14.0347C1.53484 13.8088 1.35687 13.6139 1.1438 13.4634C0.955193 13.3317 0.744532 13.235 0.521798 13.1777C0.351614 13.1307 0.176524 13.1039 9.99998e-05 13.0977L0 11.041ZM23.9999 13.0978C23.8168 13.1028 23.6349 13.1297 23.4581 13.1778C23.2386 13.2334 23.0289 13.322 22.836 13.4406C22.6299 13.5677 22.4551 13.7395 22.3243 13.9434C22.1746 14.1909 22.1013 14.4771 22.1136 14.7661V19.4737C22.1247 19.9535 22.0287 20.4297 21.8327 20.8677C21.6665 21.2338 21.4353 21.5667 21.1505 21.8504C20.9082 22.0924 20.6222 22.2863 20.3077 22.4217C20.0677 22.5311 19.8088 22.5932 19.5452 22.6045H5.75888C7.11667 20.5477 7.11667 3.591 5.75888 1.53461H19.5453C19.8089 1.54594 20.0678 1.60801 20.3078 1.71741C20.6223 1.85285 20.9083 2.04671 21.1506 2.2887C21.4354 2.57242 21.6666 2.90535 21.8328 3.2714C22.0288 3.70944 22.1248 4.18563 22.1137 4.66539V9.18987C22.1023 9.5078 22.175 9.82311 22.3244 10.104C22.4495 10.3307 22.6245 10.526 22.8361 10.6753C23.0247 10.8069 23.2354 10.9037 23.4582 10.961C23.635 11.009 23.8169 11.0359 24 11.041L23.9999 13.0978Z" fill="#2C2C2C"/>
<path d="M5.53833 7.63108H7.39922V8.87168H7.45092C7.59611 8.65861 7.75741 8.45698 7.93342 8.26858C8.10291 8.08706 8.29724 7.93044 8.51062 7.80338C8.73989 7.67008 8.98625 7.56865 9.24292 7.50188C9.55252 7.42307 9.87116 7.38542 10.1906 7.38988C10.7151 7.38616 11.2326 7.51035 11.6983 7.75168C12.158 7.98665 12.512 8.38672 12.6891 8.87168C12.997 8.43585 13.3896 8.06664 13.8436 7.78618C14.2801 7.52198 14.8258 7.38988 15.4805 7.38988C16.4224 7.38988 17.1547 7.61961 17.6774 8.07908C18.2 8.53854 18.4614 9.30817 18.4614 10.388V16.5394H16.4971V11.3358C16.4971 10.9796 16.4856 10.6551 16.4626 10.3623C16.4475 10.0989 16.3801 9.84115 16.2644 9.60407C16.1565 9.39276 15.9846 9.22089 15.7733 9.11297C15.4926 8.98518 15.1854 8.92611 14.8773 8.94067C14.211 8.94067 13.7286 9.14734 13.4299 9.56067C13.1312 9.974 12.9819 10.5598 12.9819 11.3182V16.5394H11.0177V10.8188C11.0177 10.1988 10.9057 9.73067 10.6817 9.41447C10.4577 9.09827 10.047 8.94047 9.44971 8.94107C9.19745 8.94099 8.94798 8.99382 8.71742 9.09617C8.48143 9.20004 8.27012 9.35272 8.09742 9.54417C7.90935 9.75586 7.76307 10.0012 7.66632 10.2674C7.55247 10.5821 7.49699 10.9149 7.50262 11.2496V16.5395H5.53833V7.63108Z" fill="#6C757D"/>
</svg>
