<?xml version="1.0" encoding="utf-8"?>
<!-- Generator: Adobe Illustrator 26.2.1, SVG Export Plug-In . SVG Version: 6.00 Build 0)  -->
<svg version="1.1" id="phone_number" xmlns="http://www.w3.org/2000/svg" xmlns:xlink="http://www.w3.org/1999/xlink" x="0px"
	 y="0px" viewBox="0 0 24 24" style="enable-background:new 0 0 24 24;" xml:space="preserve">
<style type="text/css">
	.st0{fill:none;stroke:#B3B3B3;stroke-width:1.5;stroke-miterlimit:10;}
</style>
<path id="Shape" class="st0" d="M18.5,16.9l-2.4-1.6c-0.2-0.1-0.5-0.2-0.7-0.1l-0.9,0.5c-0.2,0.1-0.5,0.1-0.7-0.1
	c-1.7-1.4-2.9-3.4-3.2-5.6c0-0.3,0.1-0.5,0.3-0.7l0.8-0.6c0.2-0.1,0.3-0.4,0.3-0.6l-0.2-2.9l0-0.7c0-0.1,0-0.2-0.1-0.3
	c-0.1-0.1-0.2-0.3-0.4-0.3c-0.9-0.3-1.9-0.1-2.7,0.4L8.3,4.4L8.2,4.5c0,0-0.1,0.1-0.1,0.1L7.9,4.7C6.3,6.2,6.6,10.1,8.7,14l0.6,1.1
	c2.3,3.7,5.6,5.9,7.7,5.3l0.2,0c0.1,0,0.1,0,0.2-0.1l0.1,0l0.2-0.1c0.9-0.4,1.5-1.2,1.7-2.1c0-0.2,0-0.3-0.1-0.5
	c-0.1-0.1-0.1-0.2-0.2-0.2L18.5,16.9z"/>
</svg>
