<?xml version="1.0" encoding="utf-8"?>
<!-- Generator: Adobe Illustrator 26.2.1, SVG Export Plug-In . SVG Version: 6.00 Build 0)  -->
<svg version="1.1" id="Layer_1" xmlns="http://www.w3.org/2000/svg" xmlns:xlink="http://www.w3.org/1999/xlink" x="0px" y="0px"
	 viewBox="0 0 24 24" style="enable-background:new 0 0 24 24;" xml:space="preserve">
<style type="text/css">
	.st0{fill:#B3B3B3;}
</style>
<g>
	<path class="st0" d="M8,4.7c0.2,0.2,0.3,0.4,0.3,0.7V18c0,0.3-0.1,0.5-0.3,0.7s-0.5,0.3-0.8,0.3S6.6,19,6.4,18.8S6.1,18.3,6.1,18
		V7.1L4.2,8.2C4.1,8.3,3.9,8.4,3.7,8.4C3.4,8.4,3.2,8.3,3,8.1C2.8,7.8,2.7,7.6,2.7,7.4c0-0.2,0-0.3,0.1-0.5C3,6.7,3.1,6.6,3.2,6.5
		l3.3-2C6.7,4.4,7,4.4,7.3,4.4C7.6,4.4,7.8,4.5,8,4.7z"/>
	<path class="st0" d="M20.2,17.8c-0.7,0.7-1.7,1.2-2.9,1.4v1.7c0,0.3-0.1,0.5-0.3,0.7c-0.2,0.2-0.4,0.3-0.7,0.3
		c-0.3,0-0.5-0.1-0.7-0.3c-0.2-0.2-0.3-0.4-0.3-0.7v-1.7c-0.8-0.1-1.5-0.2-2.2-0.5c-0.7-0.3-1.3-0.7-1.9-1.3
		c-0.3-0.3-0.4-0.5-0.4-0.9c0-0.3,0.1-0.5,0.3-0.7c0.2-0.2,0.4-0.3,0.7-0.3c0.2,0,0.4,0.1,0.6,0.2c0.4,0.4,0.9,0.7,1.4,1
		c0.5,0.2,1,0.4,1.6,0.5v-4.9c-1.3-0.3-2.4-0.8-3.1-1.5c-0.7-0.7-1.1-1.6-1.1-2.7c0-1.1,0.4-2,1.1-2.7c0.8-0.7,1.8-1.2,3-1.3V3.1
		c0-0.3,0.1-0.5,0.3-0.7s0.4-0.3,0.7-0.3c0.3,0,0.5,0.1,0.7,0.3s0.3,0.4,0.3,0.7v1.1c0.7,0.1,1.3,0.3,1.8,0.5c0.6,0.3,1,0.6,1.4,0.9
		C20.9,6,21,6.3,21,6.6c0,0.3-0.1,0.5-0.3,0.7c-0.2,0.2-0.4,0.3-0.7,0.3c-0.2,0-0.4-0.1-0.5-0.2c-0.3-0.3-0.6-0.5-1-0.7
		s-0.8-0.4-1.3-0.5v4.7c1.3,0.4,2.3,0.8,3,1.5c0.7,0.6,1,1.5,1,2.8C21.3,16.2,20.9,17,20.2,17.8z M13.7,9.5c0.4,0.3,0.9,0.6,1.6,0.9
		V6.1c-0.7,0.1-1.2,0.4-1.6,0.7c-0.4,0.4-0.6,0.8-0.6,1.3C13.1,8.7,13.3,9.2,13.7,9.5z M18.7,16.4c0.4-0.3,0.5-0.8,0.5-1.2
		c0-0.5-0.2-1-0.5-1.3c-0.3-0.4-0.8-0.7-1.5-0.9v4.2C17.9,17,18.4,16.8,18.7,16.4z"/>
</g>
</svg>
