<?xml version="1.0" encoding="utf-8"?>
<!-- Generator: Adobe Illustrator 26.2.1, SVG Export Plug-In . SVG Version: 6.00 Build 0)  -->
<svg version="1.1" id="Layer_1" xmlns="http://www.w3.org/2000/svg" xmlns:xlink="http://www.w3.org/1999/xlink" x="0px" y="0px"
	 viewBox="0 0 24 24" style="enable-background:new 0 0 24 24;" xml:space="preserve">
<style type="text/css">
	.st0{fill:#B3B3B3;}
</style>
<g>
	<path class="st0" d="M12.9,17.8c-0.8,0.7-1.7,1.2-2.9,1.4v1.7c0,0.3-0.1,0.5-0.3,0.7S9.3,21.9,9,21.9c-0.3,0-0.5-0.1-0.7-0.3
		s-0.3-0.4-0.3-0.7v-1.7c-0.8-0.1-1.6-0.2-2.2-0.5C5.2,18.5,4.6,18,4,17.5c-0.3-0.3-0.4-0.5-0.4-0.9c0-0.3,0.1-0.5,0.3-0.7
		s0.4-0.3,0.7-0.3c0.2,0,0.4,0.1,0.6,0.2c0.4,0.4,0.9,0.8,1.4,1c0.5,0.2,1,0.4,1.6,0.5v-4.9C6.7,12.2,5.7,11.7,5,11
		c-0.7-0.7-1.1-1.6-1.1-2.7c0-1.1,0.4-2,1.1-2.7c0.8-0.7,1.8-1.2,3-1.3V3.1c0-0.3,0.1-0.5,0.3-0.7s0.4-0.3,0.7-0.3
		c0.3,0,0.5,0.1,0.7,0.3c0.2,0.2,0.3,0.4,0.3,0.7v1.1c0.7,0.1,1.3,0.3,1.8,0.5c0.6,0.3,1,0.6,1.4,0.9c0.3,0.3,0.5,0.6,0.5,0.9
		c0,0.3-0.1,0.5-0.3,0.7c-0.2,0.2-0.4,0.3-0.7,0.3c-0.2,0-0.4-0.1-0.5-0.2c-0.3-0.3-0.6-0.5-1-0.7c-0.4-0.2-0.8-0.4-1.3-0.5v4.7
		c1.3,0.4,2.4,0.8,3,1.5c0.7,0.6,1,1.5,1,2.8C14.1,16.2,13.7,17.1,12.9,17.8z M6.4,9.6c0.4,0.3,0.9,0.6,1.6,0.9V6.2
		C7.4,6.3,6.9,6.5,6.5,6.9S5.9,7.7,5.9,8.2C5.9,8.8,6.1,9.2,6.4,9.6z M11.5,16.5c0.4-0.4,0.5-0.8,0.5-1.2c0-0.5-0.2-1-0.5-1.3
		c-0.3-0.4-0.8-0.7-1.5-0.9v4.2C10.6,17.1,11.1,16.8,11.5,16.5z"/>
	<path class="st0" d="M20.3,4.7c0.2,0.2,0.3,0.4,0.3,0.7v12.7c0,0.3-0.1,0.5-0.3,0.7c-0.2,0.2-0.5,0.3-0.8,0.3s-0.6-0.1-0.8-0.3
		c-0.2-0.2-0.3-0.4-0.3-0.7V7.1l-1.9,1.1c-0.2,0.1-0.3,0.1-0.5,0.1c-0.3,0-0.5-0.1-0.7-0.3c-0.2-0.2-0.3-0.5-0.3-0.7
		c0-0.2,0-0.3,0.1-0.5c0.1-0.2,0.2-0.3,0.4-0.4l3.3-2c0.2-0.1,0.4-0.1,0.7-0.1C19.9,4.4,20.2,4.5,20.3,4.7z"/>
</g>
</svg>
