<?xml version="1.0" encoding="utf-8"?>
<!-- Generator: Adobe Illustrator 26.2.1, SVG Export Plug-In . SVG Version: 6.00 Build 0)  -->
<svg version="1.1" id="Layer_1" xmlns="http://www.w3.org/2000/svg" xmlns:xlink="http://www.w3.org/1999/xlink" x="0px" y="0px"
	 viewBox="0 0 24 24" style="enable-background:new 0 0 24 24;" xml:space="preserve">
<style type="text/css">
	.st0{fill:#B3B3B3;}
</style>
<path id="_xD83C__xDFA8_-Color" class="st0" d="M19,13c0.6,0,1,0.4,1,1v3.6l0.3-0.3c0.4-0.4,1-0.4,1.4,0c0.4,0.4,0.4,1,0,1.4l-2,2
	c-0.4,0.4-1,0.4-1.4,0l-2-2c-0.4-0.4-0.4-1,0-1.4c0.4-0.4,1-0.4,1.4,0l0.3,0.3V14C18,13.4,18.4,13,19,13z M11,17c0.6,0,1,0.4,1,1
	c0,0.5-0.4,0.9-0.9,1L11,19H3c-0.6,0-1-0.4-1-1c0-0.5,0.4-0.9,0.9-1L3,17H11z M14,11c0.6,0,1,0.4,1,1s-0.4,1-1,1H3c-0.6,0-1-0.4-1-1
	s0.4-1,1-1H14z M19,3c0.1,0,0.3,0,0.4,0.1c0.1,0,0.2,0.1,0.3,0.2l2,2c0.4,0.4,0.4,1,0,1.4c-0.4,0.4-1,0.4-1.4,0L20,6.4V10
	c0,0.6-0.4,1-1,1s-1-0.4-1-1V6.4l-0.3,0.3c-0.4,0.4-1,0.4-1.4,0c-0.4-0.4-0.4-1,0-1.4l2-2c0.1-0.1,0.2-0.2,0.3-0.2
	C18.7,3,18.9,3,19,3z M11,5c0.6,0,1,0.4,1,1s-0.4,1-1,1H3C2.4,7,2,6.6,2,6s0.4-1,1-1H11z"/>
</svg>
