<?xml version="1.0" encoding="utf-8"?>
<!-- Generator: Adobe Illustrator 26.2.1, SVG Export Plug-In . SVG Version: 6.00 Build 0)  -->
<svg version="1.1" id="Capa_1" xmlns="http://www.w3.org/2000/svg" xmlns:xlink="http://www.w3.org/1999/xlink" x="0px" y="0px"
	 viewBox="0 0 392.6 392.6" style="enable-background:new 0 0 392.6 392.6;" xml:space="preserve">
<style type="text/css">
	.st0{fill:#B3B3B3;}
</style>
<g>
	<path class="st0" d="M310.7,0.9H81.9C36.7,0.9,0,37.7,0,82.8v227c0,45.2,36.7,81.9,81.9,81.9h228.8c45.2,0,81.9-36.7,81.9-81.9
		v-227C392.6,37.7,355.9,0.9,310.7,0.9z M362.6,309.8c0,28.6-23.3,51.9-51.9,51.9H81.9c-28.6,0-51.9-23.3-51.9-51.9v-227
		c0-28.6,23.3-51.9,51.9-51.9h228.8c28.6,0,51.9,23.3,51.9,51.9V309.8z"/>
	<path class="st0" d="M268.8,113.7H164.6c-8.3,0-15,6.7-15,15s6.7,15,15,15h37.1v120.2c0,8.3,6.7,15,15,15s15-6.7,15-15V143.7h37.1
		c8.3,0,15-6.7,15-15S277.1,113.7,268.8,113.7z"/>
	<path class="st0" d="M175.7,179.9h-51.9c-8.3,0-15,6.7-15,15s6.7,15,15,15h11v52.3c0,8.3,6.7,15,15,15s15-6.7,15-15v-52.3h11
		c8.3,0,15-6.7,15-15S184,179.9,175.7,179.9z"/>
</g>
</svg>
